<?xml version="1.0" encoding="UTF-8" standalone="no"?>
<!-- Created with Inkscape (http://www.inkscape.org/) -->

<svg
   xmlns:dc="http://purl.org/dc/elements/1.1/"
   xmlns:cc="http://creativecommons.org/ns#"
   xmlns:rdf="http://www.w3.org/1999/02/22-rdf-syntax-ns#"
   xmlns:svg="http://www.w3.org/2000/svg"
   xmlns="http://www.w3.org/2000/svg"
   xmlns:sodipodi="http://sodipodi.sourceforge.net/DTD/sodipodi-0.dtd"
   xmlns:inkscape="http://www.inkscape.org/namespaces/inkscape"
   width="504.84372mm"
   height="52.024315mm"
   viewBox="0 0 1788.8164 184.33812"
   id="svg3392"
   version="1.1"
   inkscape:version="0.91 r13725"
   sodipodi:docname="curlyCue.svg">
  <defs
     id="defs3394" />
  <sodipodi:namedview
     id="base"
     pagecolor="#ffffff"
     bordercolor="#666666"
     borderopacity="1.0"
     inkscape:pageopacity="0.0"
     inkscape:pageshadow="2"
     inkscape:zoom="0.175"
     inkscape:cx="1091.2779"
     inkscape:cy="-898.00318"
     inkscape:document-units="px"
     inkscape:current-layer="layer1"
     showgrid="true"
     fit-margin-top="0"
     fit-margin-left="0"
     fit-margin-right="0"
     fit-margin-bottom="0"
     inkscape:window-width="1366"
     inkscape:window-height="705"
     inkscape:window-x="-8"
     inkscape:window-y="-8"
     inkscape:window-maximized="1"
     inkscape:object-nodes="true">
    <inkscape:grid
       type="xygrid"
       id="grid4697"
       originx="-345.59183"
       originy="-1609.6769" />
  </sodipodi:namedview>
  <metadata
     id="metadata3397">
    <rdf:RDF>
      <cc:Work
         rdf:about="">
        <dc:format>image/svg+xml</dc:format>
        <dc:type
           rdf:resource="http://purl.org/dc/dcmitype/StillImage" />
        <dc:title></dc:title>
      </cc:Work>
    </rdf:RDF>
  </metadata>
  <g
     inkscape:label="Layer 1"
     inkscape:groupmode="layer"
     id="layer1"
     transform="translate(948.69386,1421.653)">
    <g
       id="g4792"
       style="stroke:#ff9955">
      <path
         sodipodi:nodetypes="cc"
         inkscape:connector-curvature="0"
         id="path4711"
         d="m 655.71443,492.36222 335.00004,0"
         style="fill:none;fill-rule:evenodd;stroke:#ff9955;stroke-width:5.00000048;stroke-linecap:butt;stroke-linejoin:miter;stroke-miterlimit:4;stroke-dasharray:none;stroke-opacity:1" />
      <g
         style="stroke:#ff9955;stroke-width:10.00000095;stroke-miterlimit:4;stroke-dasharray:none"
         id="g4784">
        <path
           sodipodi:nodetypes="sssscccsszscsssscs"
           inkscape:connector-curvature="0"
           id="path4709"
           d="m 139.74656,543.29836 c 22.52123,1.525 37.57328,22.14326 31.40295,40.37416 -11.03725,32.61071 -40.42401,40.89617 -69.55218,27.69859 C 58.850695,592.00322 48.9341,555.97833 69.4588,516.23338 c 22.98697,-44.51279 75.56466,-55.0589 125.24959,-50.76331 l 250.48574,2.1859 503.39049,4.3929 c 15.80029,-0.53533 34.34387,-1.54376 39.8794,10.18751 6.24446,13.23369 6.24446,33.2337 -0.88798,48.77161 -18.01405,39.24332 -105.40476,22.66387 -178.63318,7.00905 C 735.71444,522.36222 735.03172,519.5457 620.0234,482.63208 525.71442,452.36222 177.66182,378.62172 78.87981,505.29137 c -15.737004,21.61406 -21.519431,43.60236 -15.232449,63.27129 4.231643,13.23877 13.931176,25.42678 29.743474,35.74268 26.782815,17.47303 57.180805,15.39151 73.048165,-15.16183 8.87059,-17.08073 -1.92944,-38.55829 -23.95694,-43.4899 -8.12845,-1.81981 -26.82068,6.62012 -16.76769,16.70862 -11.47006,-8.44265 5.72155,-19.6266 14.03219,-19.06387 z"
           style="fill:none;fill-rule:evenodd;stroke:#ff9955;stroke-width:10.00000095;stroke-linecap:butt;stroke-linejoin:miter;stroke-miterlimit:4;stroke-dasharray:none;stroke-opacity:1"
           transform="translate(1.6613972e-6,2.2225121e-6)" />
        <path
           style="fill:none;fill-rule:evenodd;stroke:#ff9955;stroke-width:10.00000095;stroke-linecap:butt;stroke-linejoin:miter;stroke-miterlimit:4;stroke-dasharray:none;stroke-opacity:1"
           d="m 125.71437,562.36223 c 30,15 -30.000004,80.00001 -65.000008,0"
           id="path4782"
           inkscape:connector-curvature="0"
           sodipodi:nodetypes="cc" />
      </g>
      <path
         style="fill:none;fill-rule:evenodd;stroke:#ff9955;stroke-width:5.00000048;stroke-linecap:butt;stroke-linejoin:miter;stroke-miterlimit:4;stroke-dasharray:none;stroke-opacity:1"
         d="m 710.71444,512.36223 280.00003,0"
         id="path4788"
         inkscape:connector-curvature="0"
         sodipodi:nodetypes="cc" />
      <path
         sodipodi:nodetypes="cc"
         inkscape:connector-curvature="0"
         id="path4790"
         d="m 795.71445,532.36223 190.00002,0"
         style="fill:none;fill-rule:evenodd;stroke:#ff9955;stroke-width:5.00000048;stroke-linecap:butt;stroke-linejoin:miter;stroke-miterlimit:4;stroke-dasharray:none;stroke-opacity:1" />
    </g>
    <g
       id="g4800"
       transform="matrix(-1,0,0,1,2092.3177,0)"
       style="stroke:#ff9955">
      <path
         style="fill:none;fill-rule:evenodd;stroke:#ff9955;stroke-width:5.00000048;stroke-linecap:butt;stroke-linejoin:miter;stroke-miterlimit:4;stroke-dasharray:none;stroke-opacity:1"
         d="m 655.71443,492.36222 335.00004,0"
         id="path4802"
         inkscape:connector-curvature="0"
         sodipodi:nodetypes="cc" />
      <g
         id="g4804"
         style="stroke:#ff9955;stroke-width:10.00000095;stroke-miterlimit:4;stroke-dasharray:none">
        <path
           transform="translate(1.6613972e-6,2.2225121e-6)"
           style="fill:none;fill-rule:evenodd;stroke:#ff9955;stroke-width:10.00000095;stroke-linecap:butt;stroke-linejoin:miter;stroke-miterlimit:4;stroke-dasharray:none;stroke-opacity:1"
           d="m 139.74656,543.29836 c 22.52123,1.525 37.57328,22.14326 31.40295,40.37416 -11.03725,32.61071 -40.42401,40.89617 -69.55218,27.69859 C 58.850695,592.00322 48.9341,555.97833 69.4588,516.23338 c 22.98697,-44.51279 75.56466,-55.0589 125.24959,-50.76331 l 250.48574,2.1859 503.39049,4.3929 c 15.80029,-0.53533 34.34387,-1.54376 39.8794,10.18751 6.24446,13.23369 6.24446,33.2337 -0.88798,48.77161 -18.01405,39.24332 -105.40476,22.66387 -178.63318,7.00905 C 735.71444,522.36222 735.03172,519.5457 620.0234,482.63208 525.71442,452.36222 177.66182,378.62172 78.87981,505.29137 c -15.737004,21.61406 -21.519431,43.60236 -15.232449,63.27129 4.231643,13.23877 13.931176,25.42678 29.743474,35.74268 26.782815,17.47303 57.180805,15.39151 73.048165,-15.16183 8.87059,-17.08073 -1.92944,-38.55829 -23.95694,-43.4899 -8.12845,-1.81981 -26.82068,6.62012 -16.76769,16.70862 -11.47006,-8.44265 5.72155,-19.6266 14.03219,-19.06387 z"
           id="path4806"
           inkscape:connector-curvature="0"
           sodipodi:nodetypes="sssscccsszscsssscs" />
        <path
           sodipodi:nodetypes="cc"
           inkscape:connector-curvature="0"
           id="path4808"
           d="m 125.71437,562.36223 c 30,15 -30.000004,80.00001 -65.000008,0"
           style="fill:none;fill-rule:evenodd;stroke:#ff9955;stroke-width:10.00000095;stroke-linecap:butt;stroke-linejoin:miter;stroke-miterlimit:4;stroke-dasharray:none;stroke-opacity:1" />
      </g>
      <path
         sodipodi:nodetypes="cc"
         inkscape:connector-curvature="0"
         id="path4810"
         d="m 710.71444,512.36223 280.00003,0"
         style="fill:none;fill-rule:evenodd;stroke:#ff9955;stroke-width:5.00000048;stroke-linecap:butt;stroke-linejoin:miter;stroke-miterlimit:4;stroke-dasharray:none;stroke-opacity:1" />
      <path
         style="fill:none;fill-rule:evenodd;stroke:#ff9955;stroke-width:5.00000048;stroke-linecap:butt;stroke-linejoin:miter;stroke-miterlimit:4;stroke-dasharray:none;stroke-opacity:1"
         d="m 795.71445,532.36223 190.00002,0"
         id="path4812"
         inkscape:connector-curvature="0"
         sodipodi:nodetypes="cc" />
    </g>
    <g
       id="g4869"
       style="stroke:#79d4c3;stroke-opacity:1">
      <g
         id="g4859"
         style="stroke:#79d4c3;stroke-opacity:1">
        <path
           style="fill:none;fill-rule:evenodd;stroke:#79d4c3;stroke-width:10.00000095;stroke-linecap:butt;stroke-linejoin:miter;stroke-miterlimit:4;stroke-dasharray:none;stroke-opacity:1"
           d="m -435.76944,-1391.5998 c -265.49761,-5.7247 -403.22041,-71.7931 -488.22105,37.2045 -15.737,21.614 -21.51943,43.6023 -15.23245,63.2713 4.23164,13.2387 13.93118,25.4267 29.74348,35.7426 26.78281,17.4731 57.1808,15.3915 73.04816,-15.1618 8.87059,-17.0807 -1.92944,-38.5583 -23.95694,-43.4899 -8.12845,-1.8198 -26.82068,6.6201 -16.76769,16.7086 -11.47006,-8.4426 5.72155,-19.6266 14.03219,-19.0638 22.52123,1.525 37.57328,22.1432 31.40295,40.3741 -11.03725,32.6107 -40.42401,40.8962 -69.55218,27.6986 -42.74664,-19.3679 -52.66323,-55.3928 -32.13853,-95.1377 22.98697,-44.5128 75.56466,-55.0589 125.24959,-50.7633 l 250.48574,2.1859 503.39049,4.3929"
           id="path4850"
           inkscape:connector-curvature="0"
           sodipodi:nodetypes="ccsssscssssccc" />
        <path
           sodipodi:nodetypes="cc"
           inkscape:connector-curvature="0"
           id="path4852"
           d="m -877.15593,-1297.3245 c 30,15 -30,80 -65.00001,0"
           style="fill:none;fill-rule:evenodd;stroke:#79d4c3;stroke-width:10.00000095;stroke-linecap:butt;stroke-linejoin:miter;stroke-miterlimit:4;stroke-dasharray:none;stroke-opacity:1" />
      </g>
      <g
         transform="matrix(-1,0,0,1,-108.57133,-5.6844015e-5)"
         id="g4863"
         style="stroke:#79d4c3;stroke-opacity:1">
        <path
           sodipodi:nodetypes="ccsssscssssccc"
           inkscape:connector-curvature="0"
           id="path4865"
           d="m -435.76944,-1391.5998 c -265.49761,-5.7247 -403.22041,-71.7931 -488.22105,37.2045 -15.737,21.614 -21.51943,43.6023 -15.23245,63.2713 4.23164,13.2387 13.93118,25.4267 29.74348,35.7426 26.78281,17.4731 57.1808,15.3915 73.04816,-15.1618 8.87059,-17.0807 -1.92944,-38.5583 -23.95694,-43.4899 -8.12845,-1.8198 -26.82068,6.6201 -16.76769,16.7086 -11.47006,-8.4426 5.72155,-19.6266 14.03219,-19.0638 22.52123,1.525 37.57328,22.1432 31.40295,40.3741 -11.03725,32.6107 -40.42401,40.8962 -69.55218,27.6986 -42.74664,-19.3679 -52.66323,-55.3928 -32.13853,-95.1377 22.98697,-44.5128 75.56466,-55.0589 125.24959,-50.7633 l 250.48574,2.1859 503.39049,4.3929"
           style="fill:none;fill-rule:evenodd;stroke:#79d4c3;stroke-width:10.00000095;stroke-linecap:butt;stroke-linejoin:miter;stroke-miterlimit:4;stroke-dasharray:none;stroke-opacity:1" />
        <path
           style="fill:none;fill-rule:evenodd;stroke:#79d4c3;stroke-width:10.00000095;stroke-linecap:butt;stroke-linejoin:miter;stroke-miterlimit:4;stroke-dasharray:none;stroke-opacity:1"
           d="m -877.15593,-1297.3245 c 30,15 -30,80 -65.00001,0"
           id="path4867"
           inkscape:connector-curvature="0"
           sodipodi:nodetypes="cc" />
      </g>
    </g>
  </g>
</svg>
