<?xml version="1.0" encoding="UTF-8" standalone="no"?>
<!-- Created with Inkscape (http://www.inkscape.org/) -->

<svg
   xmlns:dc="http://purl.org/dc/elements/1.1/"
   xmlns:cc="http://creativecommons.org/ns#"
   xmlns:rdf="http://www.w3.org/1999/02/22-rdf-syntax-ns#"
   xmlns:svg="http://www.w3.org/2000/svg"
   xmlns="http://www.w3.org/2000/svg"
   xmlns:sodipodi="http://sodipodi.sourceforge.net/DTD/sodipodi-0.dtd"
   xmlns:inkscape="http://www.inkscape.org/namespaces/inkscape"
   width="210mm"
   height="297mm"
   viewBox="0 0 744.09448819 1052.3622047"
   id="svg2"
   version="1.1"
   inkscape:version="0.91 r13725"
   sodipodi:docname="invader.svg">
  <defs
     id="defs4" />
  <sodipodi:namedview
     id="base"
     pagecolor="#ffffff"
     bordercolor="#666666"
     borderopacity="1.0"
     inkscape:pageopacity="0.0"
     inkscape:pageshadow="2"
     inkscape:zoom="0.7"
     inkscape:cx="609.29689"
     inkscape:cy="1067.9835"
     inkscape:document-units="px"
     inkscape:current-layer="layer1"
     showgrid="true"
     inkscape:object-nodes="true"
     inkscape:window-width="1366"
     inkscape:window-height="706"
     inkscape:window-x="-8"
     inkscape:window-y="-8"
     inkscape:window-maximized="1">
    <inkscape:grid
       type="xygrid"
       id="grid4146" />
  </sodipodi:namedview>
  <metadata
     id="metadata7">
    <rdf:RDF>
      <cc:Work
         rdf:about="">
        <dc:format>image/svg+xml</dc:format>
        <dc:type
           rdf:resource="http://purl.org/dc/dcmitype/StillImage" />
        <dc:title></dc:title>
      </cc:Work>
    </rdf:RDF>
  </metadata>
  <g
     inkscape:label="Layer 1"
     inkscape:groupmode="layer"
     id="layer1">
    <path
       style="fill:#5a6c4a;fill-opacity:0.87548637;fill-rule:evenodd;stroke:none;stroke-width:1px;stroke-linecap:butt;stroke-linejoin:miter;stroke-opacity:1"
       d="m 270,-167.6378 -10,0 0,10 10,0 z"
       id="path4152"
       inkscape:connector-curvature="0"
       sodipodi:nodetypes="ccccc" />
    <path
       style="fill:#5a6c4a;fill-rule:evenodd;stroke:none;stroke-width:1px;stroke-linecap:butt;stroke-linejoin:miter;stroke-opacity:1;fill-opacity:0.87548637"
       d="m 210,132.3622 0,-10 10,0 0,20 10,0 0,-20 10,0 0,10 10,0 0,-10 10,0 0,-10 10,0 0,-29.999995 -20,0 0,29.999995 -10,0 0,-29.999995 20,0 0,-20 -10,0 0,-10 -20,0 0,10 -10,0 0,-10 -20,0 0,10 -10,0 0,20 20,0 0,29.999995 -10,0 0,-29.999995 -20,0 0,29.999995 10,0 0,10 10,0 0,10 z"
       id="path4154"
       inkscape:connector-curvature="0"
       sodipodi:nodetypes="ccccccccccccccccccccccccccccccccccccccccc" />
    <path
       style="fill:#5a6c4a;fill-opacity:0.87548637;fill-rule:evenodd;stroke:none;stroke-width:1px;stroke-linecap:butt;stroke-linejoin:miter;stroke-opacity:1"
       d="m 260,-147.6378 -10,0 0,-10 10,0 z"
       id="path4156"
       inkscape:connector-curvature="0"
       sodipodi:nodetypes="ccccc" />
    <path
       style="fill:#5a6c4a;fill-opacity:0.87548637;fill-rule:evenodd;stroke:none;stroke-width:1px;stroke-linecap:butt;stroke-linejoin:miter;stroke-opacity:1"
       d="m 320,-157.6378 10,0 0,-10 -10,0 z"
       id="path4162"
       inkscape:connector-curvature="0"
       sodipodi:nodetypes="ccccc" />
    <path
       style="fill:#5a6c4a;fill-opacity:0.87548637;fill-rule:evenodd;stroke:none;stroke-width:1px;stroke-linecap:butt;stroke-linejoin:miter;stroke-opacity:1"
       d="m 330,-157.6378 0,10 10,0 0,-10 z"
       id="path4164"
       inkscape:connector-curvature="0"
       sodipodi:nodetypes="ccccc" />
    <path
       sodipodi:nodetypes="ccccc"
       inkscape:connector-curvature="0"
       id="path4166"
       d="m 370,-167.6378 -10,0 0,10 10,0 z"
       style="fill:#5a6c4a;fill-opacity:0.87548637;fill-rule:evenodd;stroke:none;stroke-width:1px;stroke-linecap:butt;stroke-linejoin:miter;stroke-opacity:1" />
    <path
       sodipodi:nodetypes="ccccccccccccccccccccccccccccccccccccccccc"
       inkscape:connector-curvature="0"
       id="path4168"
       d="m 295,97.3622 0,-10 10,0 0,20 10,0 0,-20 10,0 0,10 10,0 0,-10 10,0 0,-10 10,0 0,-29.999995 -20,0 0,29.999995 -10,0 0,-29.999995 20,0 0,-20 -10,0 0,-10 -20,0 0,10 -10,0 0,-10 -20,0 0,10 -10,0 0,20 20,0 0,29.999995 -10,0 0,-29.999995 -20,0 0,29.999995 10,0 0,10 10,0 0,10 z"
       style="fill:#5a6c4a;fill-opacity:0.87548637;fill-rule:evenodd;stroke:none;stroke-width:1px;stroke-linecap:butt;stroke-linejoin:miter;stroke-opacity:1" />
    <path
       sodipodi:nodetypes="ccccc"
       inkscape:connector-curvature="0"
       id="path4170"
       d="m 360,-147.6378 -10,0 0,-10 10,0 z"
       style="fill:#5a6c4a;fill-opacity:0.87548637;fill-rule:evenodd;stroke:none;stroke-width:1px;stroke-linecap:butt;stroke-linejoin:miter;stroke-opacity:1" />
    <path
       sodipodi:nodetypes="ccccc"
       inkscape:connector-curvature="0"
       id="path4172"
       d="m 420,-157.6378 10,0 0,-10 -10,0 z"
       style="fill:#5a6c4a;fill-opacity:0.87548637;fill-rule:evenodd;stroke:none;stroke-width:1px;stroke-linecap:butt;stroke-linejoin:miter;stroke-opacity:1" />
    <path
       sodipodi:nodetypes="ccccc"
       inkscape:connector-curvature="0"
       id="path4174"
       d="m 430,-157.6378 0,10 10,0 0,-10 z"
       style="fill:#5a6c4a;fill-opacity:0.87548637;fill-rule:evenodd;stroke:none;stroke-width:1px;stroke-linecap:butt;stroke-linejoin:miter;stroke-opacity:1" />
    <path
       style="fill:#5a6c4a;fill-opacity:0.87548637;fill-rule:evenodd;stroke:none;stroke-width:1px;stroke-linecap:butt;stroke-linejoin:miter;stroke-opacity:1"
       d="m 470,-167.6378 -10,0 0,10 10,0 z"
       id="path4176"
       inkscape:connector-curvature="0"
       sodipodi:nodetypes="ccccc" />
    <path
       style="fill:#5a6c4a;fill-opacity:0.87548637;fill-rule:evenodd;stroke:none;stroke-width:1px;stroke-linecap:butt;stroke-linejoin:miter;stroke-opacity:1"
       d="m 380,132.3622 0,-10 10,0 0,20 10,0 0,-20 10,0 0,10 10,0 0,-10 10,0 0,-10 10,0 0,-29.999995 -20,0 0,29.999995 -10,0 0,-29.999995 20,0 0,-20 -10,0 0,-10 -20,0 0,10 -10,0 0,-10 -20,0 0,10 -10,0 0,20 20,0 0,29.999995 -10,0 0,-29.999995 -20,0 0,29.999995 10,0 0,10 10,0 0,10 z"
       id="path4178"
       inkscape:connector-curvature="0"
       sodipodi:nodetypes="ccccccccccccccccccccccccccccccccccccccccc" />
    <path
       style="fill:#5a6c4a;fill-opacity:0.87548637;fill-rule:evenodd;stroke:none;stroke-width:1px;stroke-linecap:butt;stroke-linejoin:miter;stroke-opacity:1"
       d="m 460,-147.6378 -10,0 0,-10 10,0 z"
       id="path4180"
       inkscape:connector-curvature="0"
       sodipodi:nodetypes="ccccc" />
    <path
       style="fill:#5a6c4a;fill-opacity:0.87548637;fill-rule:evenodd;stroke:none;stroke-width:1px;stroke-linecap:butt;stroke-linejoin:miter;stroke-opacity:1"
       d="m 520,-157.6378 10,0 0,-10 -10,0 z"
       id="path4182"
       inkscape:connector-curvature="0"
       sodipodi:nodetypes="ccccc" />
    <path
       style="fill:#5a6c4a;fill-opacity:0.87548637;fill-rule:evenodd;stroke:none;stroke-width:1px;stroke-linecap:butt;stroke-linejoin:miter;stroke-opacity:1"
       d="m 530,-157.6378 0,10 10,0 0,-10 z"
       id="path4184"
       inkscape:connector-curvature="0"
       sodipodi:nodetypes="ccccc" />
    <path
       style="fill:#5a6c4a;fill-opacity:0.87548637;fill-rule:evenodd;stroke:none;stroke-width:1px;stroke-linecap:butt;stroke-linejoin:miter;stroke-opacity:1"
       d="m 295,192.3622 0,-10 10,0 0,20 10,0 0,-20 10,0 0,10 10,0 0,-10 10,0 0,-10 10,0 0,-30 -20,0 0,30 -10,0 0,-30 20,0 0,-20 -10,0 0,-10 -20,0 0,10 -10,0 0,-10 -20,0 0,10 -10,0 0,20 20,0 0,30 -10,0 0,-30 -20,0 0,30 10,0 0,10 10,0 0,10 z"
       id="path4186"
       inkscape:connector-curvature="0"
       sodipodi:nodetypes="ccccccccccccccccccccccccccccccccccccccccc" />
    <path
       sodipodi:nodetypes="ccccccccccccccccccccccccccccccccccccccccc"
       inkscape:connector-curvature="0"
       id="path4188"
       d="m 380,227.36219 0,-10 10,0 0,20 10,0 0,-20 10,0 0,10 10,0 0,-10 10,0 0,-10 10,0 0,-29.99999 -20,0 0,29.99999 -10,0 0,-29.99999 20,0 0,-20 -10,0 0,-10 -20,0 0,10 -10,0 0,-10 -20,0 0,10 -10,0 0,20 20,0 0,29.99999 -10,0 0,-29.99999 -20,0 0,29.99999 10,0 0,10 10,0 0,10 z"
       style="fill:#5a6c4a;fill-opacity:0.87548637;fill-rule:evenodd;stroke:none;stroke-width:1px;stroke-linecap:butt;stroke-linejoin:miter;stroke-opacity:1" />
    <path
       style="fill:#5a6c4a;fill-opacity:0.87548637;fill-rule:evenodd;stroke:none;stroke-width:1px;stroke-linecap:butt;stroke-linejoin:miter;stroke-opacity:1"
       d="m 465,192.36219 0,-10 10,0 0,20 10,0 0,-20 10,0 0,10 10,0 0,-10 10,0 0,-10 10,0 0,-29.99999 -20,0 0,29.99999 -10,0 0,-29.99999 20,0 0,-20 -10,0 0,-10 -20,0 0,10 -10,0 0,-10 -20,0 0,10 -10,0 0,20 20,0 0,29.99999 -10,0 0,-29.99999 -20,0 0,29.99999 10,0 0,10 10,0 0,10 z"
       id="path4190"
       inkscape:connector-curvature="0"
       sodipodi:nodetypes="ccccccccccccccccccccccccccccccccccccccccc" />
    <path
       sodipodi:nodetypes="ccccccccccccccccccccccccccccccccccccccccc"
       inkscape:connector-curvature="0"
       id="path4192"
       d="m 550,227.36219 0,-10 10,0 0,20 10,0 0,-20 10,0 0,10 10,0 0,-10 10,0 0,-10 10,0 0,-29.99999 -20,0 0,29.99999 -10,0 0,-29.99999 20,0 0,-20 -10,0 0,-10 -20,0 0,10 -10,0 0,-10 -20,0 0,10 -10,0 0,20 20,0 0,29.99999 -10,0 0,-29.99999 -20,0 0,29.99999 10,0 0,10 10,0 0,10 z"
       style="fill:#5a6c4a;fill-opacity:0.87548637;fill-rule:evenodd;stroke:none;stroke-width:1px;stroke-linecap:butt;stroke-linejoin:miter;stroke-opacity:1" />
    <path
       sodipodi:nodetypes="ccccccccccccccccccccccccccccccccccccccccc"
       inkscape:connector-curvature="0"
       id="path4194"
       d="m 465,287.36219 0,-10 10,0 0,20 10,0 0,-20 10,0 0,10 10,0 0,-10 10,0 0,-10 10,0 0,-30 -20,0 0,30 -10,0 0,-30 20,0 0,-20 -10,0 0,-10 -20,0 0,10 -10,0 0,-10 -20,0 0,10 -10,0 0,20 20,0 0,30 -10,0 0,-30 -20,0 0,30 10,0 0,10 10,0 0,10 z"
       style="fill:#5a6c4a;fill-opacity:0.87548637;fill-rule:evenodd;stroke:none;stroke-width:1px;stroke-linecap:butt;stroke-linejoin:miter;stroke-opacity:1" />
  </g>
</svg>
